<svg width="1200" height="720" viewBox="0 0 1200 720" fill="none" xmlns="http://www.w3.org/2000/svg">
  <defs>
    <linearGradient id="bg" x1="0" y1="0" x2="1" y2="1">
      <stop offset="0%" stop-color="#1E293B"/>
      <stop offset="100%" stop-color="#0F172A"/>
    </linearGradient>
    <linearGradient id="accent" x1="0" y1="0" x2="1" y2="1">
      <stop offset="0%" stop-color="#F97316"/>
      <stop offset="100%" stop-color="#F59E0B"/>
    </linearGradient>
  </defs>
  <rect width="1200" height="720" rx="36" fill="url(#bg)"/>
  <rect x="60" y="60" width="1080" height="600" rx="28" fill="#111827" stroke="#1F2937" stroke-width="2"/>
  <rect x="96" y="110" width="420" height="36" rx="18" fill="#1F2937"/>
  <rect x="96" y="170" width="300" height="14" rx="7" fill="#334155"/>
  <rect x="96" y="210" width="540" height="14" rx="7" fill="#334155"/>
  <rect x="96" y="250" width="480" height="14" rx="7" fill="#334155"/>

  <rect x="96" y="320" width="480" height="260" rx="20" fill="#0F172A" stroke="#1F2937" stroke-width="2"/>
  <rect x="620" y="320" width="440" height="260" rx="20" fill="#0F172A" stroke="#1F2937" stroke-width="2"/>
  <rect x="656" y="360" width="180" height="22" rx="11" fill="#1F2937"/>
  <rect x="656" y="400" width="300" height="12" rx="6" fill="#334155"/>
  <rect x="656" y="428" width="260" height="12" rx="6" fill="#334155"/>
  <rect x="656" y="456" width="220" height="12" rx="6" fill="#334155"/>

  <rect x="96" y="320" width="480" height="260" rx="20" fill="url(#accent)" opacity="0.08"/>
  <rect x="620" y="320" width="440" height="260" rx="20" fill="url(#accent)" opacity="0.08"/>

  <rect x="96" y="110" width="170" height="36" rx="18" fill="url(#accent)"/>
  <text x="120" y="135" fill="#0F172A" font-family="Arial" font-size="16" font-weight="700">Ship Snapshot</text>

  <rect x="620" y="110" width="200" height="36" rx="18" fill="#1F2937"/>
  <text x="650" y="135" fill="#E2E8F0" font-family="Arial" font-size="15" font-weight="600">Status: Ready</text>

  <circle cx="1080" cy="130" r="12" fill="#22C55E"/>
</svg>
